<svg xmlns="http://www.w3.org/2000/svg" width="800" height="380" viewBox="0 0 800 380">
  <defs>
    <!-- Claude brand gradient: warm terracotta/coral tones -->
    <linearGradient id="claudeGradient" x1="0%" y1="0%" x2="100%" y2="0%">
      <stop offset="0%" style="stop-color:#D97757"/>
      <stop offset="50%" style="stop-color:#E07A5F"/>
      <stop offset="100%" style="stop-color:#D97757"/>
    </linearGradient>
    
    <!-- Subtle glow filter -->
    <filter id="glow" x="-20%" y="-20%" width="140%" height="140%">
      <feGaussianBlur stdDeviation="2" result="blur"/>
      <feMerge>
        <feMergeNode in="blur"/>
        <feMergeNode in="SourceGraphic"/>
      </feMerge>
    </filter>
  </defs>
  
  <style>
    @keyframes fadeIn {
      0% { opacity: 0; }
      100% { opacity: 1; }
    }
    @keyframes pulse {
      0%, 100% { opacity: 0.4; }
      50% { opacity: 0.7; }
    }
    @keyframes blink {
      0%, 100% { opacity: 1; }
      50% { opacity: 0; }
    }
    .brick { animation: fadeIn 0.8s ease-out both; }
    .row-1 .brick { animation-delay: 0.05s; }
    .row-2 .brick { animation-delay: 0.1s; }
    .row-3 .brick { animation-delay: 0.15s; }
    .row-4 .brick { animation-delay: 0.2s; }
    .row-5 .brick { animation-delay: 0.25s; }
    .corner { animation: pulse 3s ease-in-out infinite; }
    .cursor { animation: blink 1s step-end infinite; }
  </style>
  
  <!-- Background -->
  <rect width="800" height="380" fill="#1a1b26"/>
  
  <!-- Border -->
  <rect x="8" y="8" width="784" height="364" rx="8" fill="none" stroke="#D97757" stroke-width="1.5" stroke-opacity="0.6"/>
  
  <!-- Corner dots -->
  <circle cx="24" cy="24" r="4" fill="#D97757" class="corner"/>
  <circle cx="776" cy="24" r="4" fill="#D97757" class="corner" style="animation-delay: 0.75s"/>
  <circle cx="24" cy="356" r="4" fill="#D97757" class="corner" style="animation-delay: 1.5s"/>
  <circle cx="776" cy="356" r="4" fill="#D97757" class="corner" style="animation-delay: 2.25s"/>

  <!-- AI PROMPT - Row 1 -->
  <g class="row-1" filter="url(#glow)">
    <!-- A -->
    <rect x="120" y="50" width="8" height="8" fill="#D97757" class="brick"/>
    <rect x="130" y="50" width="8" height="8" fill="#D97757" class="brick"/>
    <rect x="110" y="60" width="8" height="8" fill="#D97757" class="brick"/>
    <rect x="140" y="60" width="8" height="8" fill="#D97757" class="brick"/>
    <rect x="110" y="70" width="8" height="8" fill="#D97757" class="brick"/>
    <rect x="120" y="70" width="8" height="8" fill="#D97757" class="brick"/>
    <rect x="130" y="70" width="8" height="8" fill="#D97757" class="brick"/>
    <rect x="140" y="70" width="8" height="8" fill="#D97757" class="brick"/>
    <rect x="110" y="80" width="8" height="8" fill="#D97757" class="brick"/>
    <rect x="140" y="80" width="8" height="8" fill="#D97757" class="brick"/>
    <rect x="110" y="90" width="8" height="8" fill="#D97757" class="brick"/>
    <rect x="140" y="90" width="8" height="8" fill="#D97757" class="brick"/>
    
    <!-- I -->
    <rect x="165" y="50" width="8" height="8" fill="#D97757" class="brick"/>
    <rect x="175" y="50" width="8" height="8" fill="#D97757" class="brick"/>
    <rect x="185" y="50" width="8" height="8" fill="#D97757" class="brick"/>
    <rect x="175" y="60" width="8" height="8" fill="#D97757" class="brick"/>
    <rect x="175" y="70" width="8" height="8" fill="#D97757" class="brick"/>
    <rect x="175" y="80" width="8" height="8" fill="#D97757" class="brick"/>
    <rect x="165" y="90" width="8" height="8" fill="#D97757" class="brick"/>
    <rect x="175" y="90" width="8" height="8" fill="#D97757" class="brick"/>
    <rect x="185" y="90" width="8" height="8" fill="#D97757" class="brick"/>

    <!-- P -->
    <rect x="230" y="50" width="8" height="8" fill="#E07A5F" class="brick"/>
    <rect x="240" y="50" width="8" height="8" fill="#E07A5F" class="brick"/>
    <rect x="250" y="50" width="8" height="8" fill="#E07A5F" class="brick"/>
    <rect x="230" y="60" width="8" height="8" fill="#E07A5F" class="brick"/>
    <rect x="260" y="60" width="8" height="8" fill="#E07A5F" class="brick"/>
    <rect x="230" y="70" width="8" height="8" fill="#E07A5F" class="brick"/>
    <rect x="240" y="70" width="8" height="8" fill="#E07A5F" class="brick"/>
    <rect x="250" y="70" width="8" height="8" fill="#E07A5F" class="brick"/>
    <rect x="230" y="80" width="8" height="8" fill="#E07A5F" class="brick"/>
    <rect x="230" y="90" width="8" height="8" fill="#E07A5F" class="brick"/>
    
    <!-- R -->
    <rect x="285" y="50" width="8" height="8" fill="#E07A5F" class="brick"/>
    <rect x="295" y="50" width="8" height="8" fill="#E07A5F" class="brick"/>
    <rect x="305" y="50" width="8" height="8" fill="#E07A5F" class="brick"/>
    <rect x="285" y="60" width="8" height="8" fill="#E07A5F" class="brick"/>
    <rect x="315" y="60" width="8" height="8" fill="#E07A5F" class="brick"/>
    <rect x="285" y="70" width="8" height="8" fill="#E07A5F" class="brick"/>
    <rect x="295" y="70" width="8" height="8" fill="#E07A5F" class="brick"/>
    <rect x="305" y="70" width="8" height="8" fill="#E07A5F" class="brick"/>
    <rect x="285" y="80" width="8" height="8" fill="#E07A5F" class="brick"/>
    <rect x="305" y="80" width="8" height="8" fill="#E07A5F" class="brick"/>
    <rect x="285" y="90" width="8" height="8" fill="#E07A5F" class="brick"/>
    <rect x="315" y="90" width="8" height="8" fill="#E07A5F" class="brick"/>
    
    <!-- O -->
    <rect x="345" y="50" width="8" height="8" fill="#E07A5F" class="brick"/>
    <rect x="355" y="50" width="8" height="8" fill="#E07A5F" class="brick"/>
    <rect x="335" y="60" width="8" height="8" fill="#E07A5F" class="brick"/>
    <rect x="365" y="60" width="8" height="8" fill="#E07A5F" class="brick"/>
    <rect x="335" y="70" width="8" height="8" fill="#E07A5F" class="brick"/>
    <rect x="365" y="70" width="8" height="8" fill="#E07A5F" class="brick"/>
    <rect x="335" y="80" width="8" height="8" fill="#E07A5F" class="brick"/>
    <rect x="365" y="80" width="8" height="8" fill="#E07A5F" class="brick"/>
    <rect x="345" y="90" width="8" height="8" fill="#E07A5F" class="brick"/>
    <rect x="355" y="90" width="8" height="8" fill="#E07A5F" class="brick"/>
    
    <!-- M -->
    <rect x="390" y="50" width="8" height="8" fill="#E8A87C" class="brick"/>
    <rect x="430" y="50" width="8" height="8" fill="#E8A87C" class="brick"/>
    <rect x="390" y="60" width="8" height="8" fill="#E8A87C" class="brick"/>
    <rect x="400" y="60" width="8" height="8" fill="#E8A87C" class="brick"/>
    <rect x="420" y="60" width="8" height="8" fill="#E8A87C" class="brick"/>
    <rect x="430" y="60" width="8" height="8" fill="#E8A87C" class="brick"/>
    <rect x="390" y="70" width="8" height="8" fill="#E8A87C" class="brick"/>
    <rect x="410" y="70" width="8" height="8" fill="#E8A87C" class="brick"/>
    <rect x="430" y="70" width="8" height="8" fill="#E8A87C" class="brick"/>
    <rect x="390" y="80" width="8" height="8" fill="#E8A87C" class="brick"/>
    <rect x="430" y="80" width="8" height="8" fill="#E8A87C" class="brick"/>
    <rect x="390" y="90" width="8" height="8" fill="#E8A87C" class="brick"/>
    <rect x="430" y="90" width="8" height="8" fill="#E8A87C" class="brick"/>
    
    <!-- P -->
    <rect x="455" y="50" width="8" height="8" fill="#E8A87C" class="brick"/>
    <rect x="465" y="50" width="8" height="8" fill="#E8A87C" class="brick"/>
    <rect x="475" y="50" width="8" height="8" fill="#E8A87C" class="brick"/>
    <rect x="455" y="60" width="8" height="8" fill="#E8A87C" class="brick"/>
    <rect x="485" y="60" width="8" height="8" fill="#E8A87C" class="brick"/>
    <rect x="455" y="70" width="8" height="8" fill="#E8A87C" class="brick"/>
    <rect x="465" y="70" width="8" height="8" fill="#E8A87C" class="brick"/>
    <rect x="475" y="70" width="8" height="8" fill="#E8A87C" class="brick"/>
    <rect x="455" y="80" width="8" height="8" fill="#E8A87C" class="brick"/>
    <rect x="455" y="90" width="8" height="8" fill="#E8A87C" class="brick"/>
    
    <!-- T -->
    <rect x="510" y="50" width="8" height="8" fill="#E8A87C" class="brick"/>
    <rect x="520" y="50" width="8" height="8" fill="#E8A87C" class="brick"/>
    <rect x="530" y="50" width="8" height="8" fill="#E8A87C" class="brick"/>
    <rect x="540" y="50" width="8" height="8" fill="#E8A87C" class="brick"/>
    <rect x="550" y="50" width="8" height="8" fill="#E8A87C" class="brick"/>
    <rect x="530" y="60" width="8" height="8" fill="#E8A87C" class="brick"/>
    <rect x="530" y="70" width="8" height="8" fill="#E8A87C" class="brick"/>
    <rect x="530" y="80" width="8" height="8" fill="#E8A87C" class="brick"/>
    <rect x="530" y="90" width="8" height="8" fill="#E8A87C" class="brick"/>
    
    <!-- S -->
    <rect x="580" y="50" width="8" height="8" fill="#F0B89A" class="brick"/>
    <rect x="590" y="50" width="8" height="8" fill="#F0B89A" class="brick"/>
    <rect x="600" y="50" width="8" height="8" fill="#F0B89A" class="brick"/>
    <rect x="570" y="60" width="8" height="8" fill="#F0B89A" class="brick"/>
    <rect x="580" y="70" width="8" height="8" fill="#F0B89A" class="brick"/>
    <rect x="590" y="70" width="8" height="8" fill="#F0B89A" class="brick"/>
    <rect x="600" y="80" width="8" height="8" fill="#F0B89A" class="brick"/>
    <rect x="570" y="90" width="8" height="8" fill="#F0B89A" class="brick"/>
    <rect x="580" y="90" width="8" height="8" fill="#F0B89A" class="brick"/>
    <rect x="590" y="90" width="8" height="8" fill="#F0B89A" class="brick"/>
  </g>
  
  <!-- LIBRARY - Row 2 -->
  <g class="row-2" filter="url(#glow)">
    <!-- L -->
    <rect x="230" y="130" width="8" height="8" fill="#D97757" class="brick"/>
    <rect x="230" y="140" width="8" height="8" fill="#D97757" class="brick"/>
    <rect x="230" y="150" width="8" height="8" fill="#D97757" class="brick"/>
    <rect x="230" y="160" width="8" height="8" fill="#D97757" class="brick"/>
    <rect x="230" y="170" width="8" height="8" fill="#D97757" class="brick"/>
    <rect x="240" y="170" width="8" height="8" fill="#D97757" class="brick"/>
    <rect x="250" y="170" width="8" height="8" fill="#D97757" class="brick"/>
    <rect x="260" y="170" width="8" height="8" fill="#D97757" class="brick"/>
    
    <!-- I -->
    <rect x="285" y="130" width="8" height="8" fill="#D97757" class="brick"/>
    <rect x="295" y="130" width="8" height="8" fill="#D97757" class="brick"/>
    <rect x="305" y="130" width="8" height="8" fill="#D97757" class="brick"/>
    <rect x="295" y="140" width="8" height="8" fill="#D97757" class="brick"/>
    <rect x="295" y="150" width="8" height="8" fill="#D97757" class="brick"/>
    <rect x="295" y="160" width="8" height="8" fill="#D97757" class="brick"/>
    <rect x="285" y="170" width="8" height="8" fill="#D97757" class="brick"/>
    <rect x="295" y="170" width="8" height="8" fill="#D97757" class="brick"/>
    <rect x="305" y="170" width="8" height="8" fill="#D97757" class="brick"/>
    
    <!-- B -->
    <rect x="330" y="130" width="8" height="8" fill="#E07A5F" class="brick"/>
    <rect x="340" y="130" width="8" height="8" fill="#E07A5F" class="brick"/>
    <rect x="350" y="130" width="8" height="8" fill="#E07A5F" class="brick"/>
    <rect x="330" y="140" width="8" height="8" fill="#E07A5F" class="brick"/>
    <rect x="360" y="140" width="8" height="8" fill="#E07A5F" class="brick"/>
    <rect x="330" y="150" width="8" height="8" fill="#E07A5F" class="brick"/>
    <rect x="340" y="150" width="8" height="8" fill="#E07A5F" class="brick"/>
    <rect x="350" y="150" width="8" height="8" fill="#E07A5F" class="brick"/>
    <rect x="330" y="160" width="8" height="8" fill="#E07A5F" class="brick"/>
    <rect x="360" y="160" width="8" height="8" fill="#E07A5F" class="brick"/>
    <rect x="330" y="170" width="8" height="8" fill="#E07A5F" class="brick"/>
    <rect x="340" y="170" width="8" height="8" fill="#E07A5F" class="brick"/>
    <rect x="350" y="170" width="8" height="8" fill="#E07A5F" class="brick"/>
    
    <!-- R -->
    <rect x="385" y="130" width="8" height="8" fill="#E07A5F" class="brick"/>
    <rect x="395" y="130" width="8" height="8" fill="#E07A5F" class="brick"/>
    <rect x="405" y="130" width="8" height="8" fill="#E07A5F" class="brick"/>
    <rect x="385" y="140" width="8" height="8" fill="#E07A5F" class="brick"/>
    <rect x="415" y="140" width="8" height="8" fill="#E07A5F" class="brick"/>
    <rect x="385" y="150" width="8" height="8" fill="#E07A5F" class="brick"/>
    <rect x="395" y="150" width="8" height="8" fill="#E07A5F" class="brick"/>
    <rect x="405" y="150" width="8" height="8" fill="#E07A5F" class="brick"/>
    <rect x="385" y="160" width="8" height="8" fill="#E07A5F" class="brick"/>
    <rect x="405" y="160" width="8" height="8" fill="#E07A5F" class="brick"/>
    <rect x="385" y="170" width="8" height="8" fill="#E07A5F" class="brick"/>
    <rect x="415" y="170" width="8" height="8" fill="#E07A5F" class="brick"/>
    
    <!-- A -->
    <rect x="445" y="130" width="8" height="8" fill="#E8A87C" class="brick"/>
    <rect x="455" y="130" width="8" height="8" fill="#E8A87C" class="brick"/>
    <rect x="435" y="140" width="8" height="8" fill="#E8A87C" class="brick"/>
    <rect x="465" y="140" width="8" height="8" fill="#E8A87C" class="brick"/>
    <rect x="435" y="150" width="8" height="8" fill="#E8A87C" class="brick"/>
    <rect x="445" y="150" width="8" height="8" fill="#E8A87C" class="brick"/>
    <rect x="455" y="150" width="8" height="8" fill="#E8A87C" class="brick"/>
    <rect x="465" y="150" width="8" height="8" fill="#E8A87C" class="brick"/>
    <rect x="435" y="160" width="8" height="8" fill="#E8A87C" class="brick"/>
    <rect x="465" y="160" width="8" height="8" fill="#E8A87C" class="brick"/>
    <rect x="435" y="170" width="8" height="8" fill="#E8A87C" class="brick"/>
    <rect x="465" y="170" width="8" height="8" fill="#E8A87C" class="brick"/>
    
    <!-- R -->
    <rect x="490" y="130" width="8" height="8" fill="#E8A87C" class="brick"/>
    <rect x="500" y="130" width="8" height="8" fill="#E8A87C" class="brick"/>
    <rect x="510" y="130" width="8" height="8" fill="#E8A87C" class="brick"/>
    <rect x="490" y="140" width="8" height="8" fill="#E8A87C" class="brick"/>
    <rect x="520" y="140" width="8" height="8" fill="#E8A87C" class="brick"/>
    <rect x="490" y="150" width="8" height="8" fill="#E8A87C" class="brick"/>
    <rect x="500" y="150" width="8" height="8" fill="#E8A87C" class="brick"/>
    <rect x="510" y="150" width="8" height="8" fill="#E8A87C" class="brick"/>
    <rect x="490" y="160" width="8" height="8" fill="#E8A87C" class="brick"/>
    <rect x="510" y="160" width="8" height="8" fill="#E8A87C" class="brick"/>
    <rect x="490" y="170" width="8" height="8" fill="#E8A87C" class="brick"/>
    <rect x="520" y="170" width="8" height="8" fill="#E8A87C" class="brick"/>
    
    <!-- Y -->
    <rect x="545" y="130" width="8" height="8" fill="#F0B89A" class="brick"/>
    <rect x="575" y="130" width="8" height="8" fill="#F0B89A" class="brick"/>
    <rect x="555" y="140" width="8" height="8" fill="#F0B89A" class="brick"/>
    <rect x="565" y="140" width="8" height="8" fill="#F0B89A" class="brick"/>
    <rect x="560" y="150" width="8" height="8" fill="#F0B89A" class="brick"/>
    <rect x="560" y="160" width="8" height="8" fill="#F0B89A" class="brick"/>
    <rect x="560" y="170" width="8" height="8" fill="#F0B89A" class="brick"/>
  </g>
  
  <!-- Subtitle box -->
  <rect x="250" y="210" width="300" height="32" rx="4" fill="#24283b" stroke="#414868" stroke-width="1"/>
  <text x="400" y="231" text-anchor="middle" font-family="'SF Mono', 'Monaco', 'Inconsolata', monospace" font-size="13" fill="#a9b1d6">
    ⚡ Production-Ready AI Prompts
  </text>
  
  <!-- Terminal box -->
  <rect x="140" y="260" width="520" height="80" rx="6" fill="#1f2335" stroke="#414868" stroke-width="1"/>
  
  <!-- Terminal header dots -->
  <circle cx="160" cy="276" r="5" fill="#f7768e"/>
  <circle cx="178" cy="276" r="5" fill="#e0af68"/>
  <circle cx="196" cy="276" r="5" fill="#9ece6a"/>
  
  <!-- Terminal content -->
  <text x="160" y="308" font-family="'SF Mono', 'Monaco', monospace" font-size="12" fill="#7aa2f7">❯</text>
  <text x="178" y="308" font-family="'SF Mono', 'Monaco', monospace" font-size="12" fill="#c0caf5">claude prompts</text>
  <text x="295" y="308" font-family="'SF Mono', 'Monaco', monospace" font-size="12" fill="#bb9af7">--list</text>
  
  <text x="160" y="328" font-family="'SF Mono', 'Monaco', monospace" font-size="11" fill="#9ece6a">✓</text>
  <text x="178" y="328" font-family="'SF Mono', 'Monaco', monospace" font-size="11" fill="#565f89">Found 2 prompts in coding/</text>
  <rect x="378" y="318" width="8" height="14" fill="#c0caf5" class="cursor"/>
</svg>
