<svg xmlns="http://www.w3.org/2000/svg" width="1280" height="640" viewBox="0 0 1280 640">
  <!-- Background -->
  <rect width="1280" height="640" fill="#1a1b26"/>
  
  <!-- Border -->
  <rect x="20" y="20" width="1240" height="600" rx="16" fill="none" stroke="#D97757" stroke-width="2" stroke-opacity="0.5"/>
  
  <!-- Corner dots -->
  <circle cx="44" cy="44" r="6" fill="#D97757" opacity="0.6"/>
  <circle cx="1236" cy="44" r="6" fill="#D97757" opacity="0.6"/>
  <circle cx="44" cy="596" r="6" fill="#D97757" opacity="0.6"/>
  <circle cx="1236" cy="596" r="6" fill="#D97757" opacity="0.6"/>

  <!-- "AI PROMPTS" - Row 1 - Brick style letters -->
  <g>
    <!-- A -->
    <rect x="200" y="120" width="28" height="18" rx="3" fill="#D97757"/>
    <rect x="188" y="138" width="18" height="52" rx="3" fill="#D97757"/>
    <rect x="222" y="138" width="18" height="52" rx="3" fill="#D97757"/>
    <rect x="200" y="158" width="28" height="14" rx="3" fill="#D97757"/>
    
    <!-- I -->
    <rect x="260" y="120" width="40" height="14" rx="3" fill="#D97757"/>
    <rect x="270" y="134" width="20" height="42" rx="3" fill="#D97757"/>
    <rect x="260" y="176" width="40" height="14" rx="3" fill="#D97757"/>
    
    <!-- P -->
    <rect x="340" y="120" width="18" height="70" rx="3" fill="#E07A5F"/>
    <rect x="358" y="120" width="36" height="14" rx="3" fill="#E07A5F"/>
    <rect x="380" y="134" width="18" height="26" rx="3" fill="#E07A5F"/>
    <rect x="358" y="146" width="26" height="14" rx="3" fill="#E07A5F"/>
    
    <!-- R -->
    <rect x="420" y="120" width="18" height="70" rx="3" fill="#E07A5F"/>
    <rect x="438" y="120" width="36" height="14" rx="3" fill="#E07A5F"/>
    <rect x="460" y="134" width="18" height="22" rx="3" fill="#E07A5F"/>
    <rect x="438" y="142" width="26" height="14" rx="3" fill="#E07A5F"/>
    <rect x="456" y="156" width="24" height="34" rx="3" fill="#E07A5F"/>
    
    <!-- O -->
    <rect x="510" y="120" width="44" height="14" rx="3" fill="#E07A5F"/>
    <rect x="500" y="132" width="18" height="44" rx="3" fill="#E07A5F"/>
    <rect x="546" y="132" width="18" height="44" rx="3" fill="#E07A5F"/>
    <rect x="510" y="176" width="44" height="14" rx="3" fill="#E07A5F"/>
    
    <!-- M -->
    <rect x="590" y="120" width="18" height="70" rx="3" fill="#E8A87C"/>
    <rect x="606" y="126" width="20" height="20" rx="3" fill="#E8A87C"/>
    <rect x="624" y="140" width="18" height="18" rx="3" fill="#E8A87C"/>
    <rect x="640" y="126" width="20" height="20" rx="3" fill="#E8A87C"/>
    <rect x="658" y="120" width="18" height="70" rx="3" fill="#E8A87C"/>
    
    <!-- P -->
    <rect x="700" y="120" width="18" height="70" rx="3" fill="#E8A87C"/>
    <rect x="718" y="120" width="36" height="14" rx="3" fill="#E8A87C"/>
    <rect x="740" y="134" width="18" height="26" rx="3" fill="#E8A87C"/>
    <rect x="718" y="146" width="26" height="14" rx="3" fill="#E8A87C"/>
    
    <!-- T -->
    <rect x="780" y="120" width="56" height="16" rx="3" fill="#E8A87C"/>
    <rect x="798" y="136" width="20" height="54" rx="3" fill="#E8A87C"/>
    
    <!-- S -->
    <rect x="865" y="120" width="44" height="14" rx="3" fill="#F0B89A"/>
    <rect x="855" y="132" width="18" height="22" rx="3" fill="#F0B89A"/>
    <rect x="865" y="150" width="34" height="14" rx="3" fill="#F0B89A"/>
    <rect x="891" y="162" width="18" height="22" rx="3" fill="#F0B89A"/>
    <rect x="855" y="176" width="44" height="14" rx="3" fill="#F0B89A"/>
  </g>

  <!-- "LIBRARY" - Row 2 -->
  <g>
    <!-- L -->
    <rect x="340" y="220" width="18" height="70" rx="3" fill="#D97757"/>
    <rect x="358" y="276" width="40" height="14" rx="3" fill="#D97757"/>
    
    <!-- I -->
    <rect x="420" y="220" width="40" height="14" rx="3" fill="#D97757"/>
    <rect x="430" y="234" width="20" height="42" rx="3" fill="#D97757"/>
    <rect x="420" y="276" width="40" height="14" rx="3" fill="#D97757"/>
    
    <!-- B -->
    <rect x="490" y="220" width="18" height="70" rx="3" fill="#E07A5F"/>
    <rect x="508" y="220" width="32" height="14" rx="3" fill="#E07A5F"/>
    <rect x="530" y="234" width="18" height="18" rx="3" fill="#E07A5F"/>
    <rect x="508" y="246" width="26" height="12" rx="3" fill="#E07A5F"/>
    <rect x="530" y="258" width="18" height="18" rx="3" fill="#E07A5F"/>
    <rect x="508" y="276" width="32" height="14" rx="3" fill="#E07A5F"/>
    
    <!-- R -->
    <rect x="570" y="220" width="18" height="70" rx="3" fill="#E07A5F"/>
    <rect x="588" y="220" width="36" height="14" rx="3" fill="#E07A5F"/>
    <rect x="610" y="234" width="18" height="22" rx="3" fill="#E07A5F"/>
    <rect x="588" y="242" width="26" height="14" rx="3" fill="#E07A5F"/>
    <rect x="606" y="256" width="24" height="34" rx="3" fill="#E07A5F"/>
    
    <!-- A -->
    <rect x="665" y="220" width="28" height="18" rx="3" fill="#E8A87C"/>
    <rect x="653" y="238" width="18" height="52" rx="3" fill="#E8A87C"/>
    <rect x="687" y="238" width="18" height="52" rx="3" fill="#E8A87C"/>
    <rect x="665" y="258" width="28" height="14" rx="3" fill="#E8A87C"/>
    
    <!-- R -->
    <rect x="730" y="220" width="18" height="70" rx="3" fill="#E8A87C"/>
    <rect x="748" y="220" width="36" height="14" rx="3" fill="#E8A87C"/>
    <rect x="770" y="234" width="18" height="22" rx="3" fill="#E8A87C"/>
    <rect x="748" y="242" width="26" height="14" rx="3" fill="#E8A87C"/>
    <rect x="766" y="256" width="24" height="34" rx="3" fill="#E8A87C"/>
    
    <!-- Y -->
    <rect x="815" y="220" width="20" height="28" rx="3" fill="#F0B89A"/>
    <rect x="859" y="220" width="20" height="28" rx="3" fill="#F0B89A"/>
    <rect x="830" y="244" width="34" height="18" rx="3" fill="#F0B89A"/>
    <rect x="837" y="262" width="20" height="28" rx="3" fill="#F0B89A"/>
  </g>

  <!-- Tagline box -->
  <rect x="390" y="340" width="500" height="56" rx="8" fill="none" stroke="#414868" stroke-width="2"/>
  <text x="640" y="376" text-anchor="middle" font-family="'SF Mono', 'Monaco', 'Fira Code', monospace" font-size="22" fill="#a9b1d6">
    ⚡ Production-Ready AI Prompts
  </text>

  <!-- Terminal window -->
  <rect x="290" y="430" width="700" height="120" rx="10" fill="#1f2335" stroke="#414868" stroke-width="2"/>
  
  <!-- Terminal header -->
  <rect x="290" y="430" width="700" height="36" rx="10" fill="#24283b"/>
  <rect x="290" y="456" width="700" height="10" fill="#24283b"/>
  
  <!-- Terminal dots -->
  <circle cx="318" cy="448" r="8" fill="#f7768e"/>
  <circle cx="344" cy="448" r="8" fill="#e0af68"/>
  <circle cx="370" cy="448" r="8" fill="#9ece6a"/>
  
  <!-- Terminal content -->
  <text x="318" y="500" font-family="'SF Mono', 'Monaco', 'Fira Code', monospace" font-size="18" font-weight="500" fill="#7aa2f7">❯</text>
  <text x="345" y="500" font-family="'SF Mono', 'Monaco', 'Fira Code', monospace" font-size="18" font-weight="600" fill="#c0caf5">claude prompts</text>
  <text x="520" y="500" font-family="'SF Mono', 'Monaco', 'Fira Code', monospace" font-size="18" fill="#bb9af7">--list</text>
  
  <text x="318" y="530" font-family="'SF Mono', 'Monaco', 'Fira Code', monospace" font-size="16" fill="#9ece6a">✓</text>
  <text x="345" y="530" font-family="'SF Mono', 'Monaco', 'Fira Code', monospace" font-size="16" fill="#565f89">Found 2 prompts in coding/</text>
  <rect x="575" y="514" width="12" height="20" rx="2" fill="#c0caf5"/>

  <!-- Model badges -->
  <g font-family="system-ui, -apple-system, sans-serif" font-size="14" font-weight="600">
    <rect x="420" y="580" width="120" height="28" rx="4" fill="#D97757"/>
    <text x="480" y="599" text-anchor="middle" fill="white">Claude Opus 4.5</text>
    
    <rect x="555" y="580" width="90" height="28" rx="4" fill="#10a37f"/>
    <text x="600" y="599" text-anchor="middle" fill="white">GPT-5.2</text>
    
    <rect x="660" y="580" width="110" height="28" rx="4" fill="#4285f4"/>
    <text x="715" y="599" text-anchor="middle" fill="white">Gemini 3 Pro</text>
  </g>
</svg>
